#!OML:ASF E:/inclinewalkrobotboard/Project1/Captureday1/Session1/subject1.ASF
:FULLY-SPECIFIED
:DEGREES
38
root 0 0 0 1.9942327652485272 -10.977556159625859 0.9839840362011638
lowerback -0.4181938726326233 -1.76929426139036 -2.8103053965715388
upperback -0.45612173860562943 -2.3250852265160593 1.6999852552387318
thorax -0.03671738742540165 -1.1510729530209343 3.2775822284229013
lowerneck -25.34895371421241 -1.7443605300160636 -8.069491260608933
upperneck 27.27543730445901 0.16687042473122393 2.3661509649994428
head 13.360432888344072 -0.5625798881544299 2.3802855859060026
rclavicle -9.567233375276022E-17 6.097559179397497E-17
rhumerus -33.68949478052415 -4.6022942952203625 -79.06064515328909
rradius 29.15037726406079
rwrist 20.422848907842543
rhand -17.43668094023482 8.823735897399017
rfingers 7.125019999999938
rthumb 8.81048641936537 -20.961552065267455
lclavicle 3.368721892940579E-16 5.16388466534653E-16
lhumerus -20.82737439969951 -7.345182891633959 91.34696442163494
lradius 66.02083114887466
lwrist 2.7420717562360246
lhand -28.703269309756223 21.673120771612638
lfingers 7.125020000000023
lthumb -2.080898246801726 51.70360368059667
rfemur -32.6696767144107 2.4077106299593467 16.92568242595836
rtibia 39.58500457526769
rfoot -5.782461707334624 -11.264617735177952
rtoes -2.524393985558249
lfemur 9.189032756285297 -2.9954843595852454 -31.25568644852678
ltibia 19.582878365037814
lfoot -20.53742170904634 -1.6767726574122523
ltoes -0.9958997966941769
39
root 0 0 0 2.021373269318595 -10.995440443263508 1.0186040051114256
lowerback -0.43423215945461546 -1.7946197153203363 -2.818489872006169
upperback -0.436182357002088 -2.359333656121622 1.7285604373361592
thorax -0.0026522848018233347 -1.1698841563951032 3.3109661422487706
lowerneck -25.71727889546404 -1.7830055101939748 -8.065120647975887
upperneck 26.782521509607868 0.1288676634446867 2.4227175952061337
head 13.250721073993011 -0.55711676402348 2.38872856159021
rclavicle 2.5919873878876398E-15 -8.838661145979817E-16
rhumerus -33.864565610499966 -3.966171972453245 -78.54144403547932
rradius 28.801262479064334
rwrist 20.420681199620134
rhand -17.55392075489057 8.916699222312065
rfingers 7.125019999999935
rthumb 8.69694457858036 -20.864539700141794
lclavicle 2.004799835649299E-15 4.296206594087125E-16
lhumerus -20.734268391633996 -8.473057428651149 91.27583165188955
lradius 66.58987651913797
lwrist 3.1087522745076117
lhand -28.665444849670816 22.221742973136003
lfingers 7.125020000000022
lthumb -2.0484738515229717 52.26770663976861
rfemur -32.9784407975571 4.099635871470882 17.41248504400542
rtibia 28.601305876718406
rfoot -6.707422211575011 -12.927047268326369
rtoes -3.728942162464983
lfemur 14.741515210520319 -3.1643682740800685 -31.355824890766918
ltibia 19.7141135246492
lfoot -18.1481036686737 -3.7332408223164792
ltoes -5.058833502408952
40
root 0 0 0 2.0109318669383747 -10.974656560527286 1.0582900919462328
lowerback -0.38541802153806093 -1.7944743882952192 -2.8061285996139147
upperback -0.45517668435718983 -2.361223769979511 1.8039994700855897
thorax -0.04561460577199239 -1.1701238311130358 3.3822225068611713
lowerneck -26.292500590981263 -1.8415439964280884 -7.972637642113965
upperneck 25.79658000703603 0.07507800044162583 2.486785051434481
head 13.009131744173166 -0.5505059147380985 2.3811063805155546
rclavicle 3.887764118101769E-15 -1.5327766387095615E-15
rhumerus -33.973136523581665 -3.2280509590290625 -78.1038648447296
rradius 28.530491340690403
rwrist 20.383592003587335
rhand -17.69390608022349 9.000731187896179
rfingers 7.125019999999935
rthumb 8.56183490118714 -20.7864737964562
lclavicle 2.8322856926682073E-15 4.771220693415026E-16
lhumerus -20.491417687472108 -9.459416107348083 91.14349819392797
lradius 67.0763415077154
lwrist 3.450162863719918
lhand -28.65231894481939 22.749270762088408
lfingers 7.125020000000019
lthumb -2.039083982483575 52.806968138224406
rfemur -33.33433182836248 5.082000223964785 17.987785241668018
rtibia 22.307988263982324
rfoot -7.293531382448109 -13.429999542915098
rtoes -3.999731820710383
lfemur 20.769829474239177 -3.6150831851514345 -30.424685728889507
ltibia 21.896444965650048
lfoot -13.195727191150022 -7.062250696879713
ltoes -10.954394201122447
41
root 0 0 0 1.9500788082715996 -10.883988041954426 1.074801146087816
lowerback -0.1893499059150665 -1.7567118211721278 -2.7246995148166224
upperback -0.503729912751411 -2.314765597196483 1.9817941206397975
thorax -0.2022712870999035 -1.1445511575069933 3.521540090751115
lowerneck -27.000961898722316 -1.8566639484860115 -7.712670722299229
upperneck 24.31848521020206 0.10204350926543126 2.459477070650022
head 12.63017481761088 -0.5147659669051416 2.327396390603645
rclavicle 2.7197260579572794E-15 -2.1422901192060382E-15
rhumerus -34.05820952441166 -2.48847654088988 -77.71843195445405
rradius 28.317020504643665
rwrist 20.36600208878714
rhand -17.818772801578643 9.0465764290289
rfingers 7.125019999999938
rthumb 8.441276514109063 -20.751507585831813
lclavicle 1.6303613100889341E-15 2.1663449403839375E-16
lhumerus -20.198193574449807 -10.191639143581845 90.8549398022669
lradius 67.4113867604388
lwrist 3.8090492914451324
lhand -28.53483808844527 23.1100616367754
lfingers 7.1250200000000135
lthumb -1.930689801214096 53.180840595651446
rfemur -35.11187690367449 5.892406062609677 19.661105100744468
rtibia 17.316473286098407
rfoot -6.188852837984616 -11.928238536591921
rtoes -1.4316346552458583
lfemur 18.369596202689877 -3.2127372838994166 -24.566242365731846
ltibia 35.08768582718875
lfoot -1.805772110512737 -13.868569020930483
ltoes -18.20554157283921
